<?xml version="1.0" encoding="UTF-8" standalone="no"?>
<svg
   xmlns:dc="http://purl.org/dc/elements/1.1/"
   xmlns:cc="http://creativecommons.org/ns#"
   xmlns:rdf="http://www.w3.org/1999/02/22-rdf-syntax-ns#"
   xmlns:svg="http://www.w3.org/2000/svg"
   xmlns="http://www.w3.org/2000/svg"
   xmlns:sodipodi="http://sodipodi.sourceforge.net/DTD/sodipodi-0.dtd"
   xmlns:inkscape="http://www.inkscape.org/namespaces/inkscape"
   id="ff13122b-c9a2-4eb3-994d-202711f70fc9"
   data-name="Layer 1"
   width="746"
   height="721.34323"
   viewBox="0 0 746 721.34323"
   version="1.1"
   sodipodi:docname="1.svg"
   inkscape:version="1.0.2 (e86c870879, 2021-01-15, custom)">
  <metadata
     id="metadata1021">
    <rdf:RDF>
      <cc:Work
         rdf:about="">
        <dc:format>image/svg+xml</dc:format>
        <dc:type
           rdf:resource="http://purl.org/dc/dcmitype/StillImage" />
      </cc:Work>
    </rdf:RDF>
  </metadata>
  <defs
     id="defs1019" />
  <sodipodi:namedview
     pagecolor="#ffffff"
     bordercolor="#666666"
     borderopacity="1"
     objecttolerance="10"
     gridtolerance="10"
     guidetolerance="10"
     inkscape:pageopacity="0"
     inkscape:pageshadow="2"
     inkscape:window-width="1920"
     inkscape:window-height="1017"
     id="namedview1017"
     showgrid="false"
     inkscape:zoom="0.83512064"
     inkscape:cx="373"
     inkscape:cy="381.7446"
     inkscape:window-x="1911"
     inkscape:window-y="-9"
     inkscape:window-maximized="1"
     inkscape:current-layer="ff13122b-c9a2-4eb3-994d-202711f70fc9"
     inkscape:document-rotation="0" />
  <path
     id="path1011"
     style="fill:#000000;stroke-width:7.42892"
     d="m 532.41053,581.65747 c -2.9087,-4.81654 -15.63202,-13.66357 -28.2737,-19.66006 -18.92959,-8.97892 -19.74585,-10.24351 -4.62622,-7.16692 l 18.3591,3.7357 2.43018,-101.72576 c 1.7914,-75.08589 -0.77765,-116.47979 -9.81903,-158.06466 -11.03637,-50.7649 -10.93664,-68.66623 0.60542,-108.62947 2.88152,-9.97751 -4.29099,-13.07136 -38.90262,-16.78075 -23.33974,-2.50136 -54.32276,-6.60622 -68.85134,-9.12216 -16.19505,-2.80449 -39.73559,0.0524 -60.84122,7.38665 -18.93412,6.57858 -47.35992,11.96101 -63.16861,11.96101 h -28.74298 l 11.17571,27.3725 c 10.09778,24.73228 9.99397,32.30737 -1.0765,78.53725 -11.92454,49.79674 -11.82163,52.6491 3.84963,106.67189 16.18159,55.78202 17.98757,126.57417 4.03495,158.16503 -5.21778,11.81381 -3.06639,13.46618 15.13052,11.62137 11.66721,-1.1828 39.38853,0.51271 61.60295,3.76833 33.03075,4.84062 47.46352,3.0656 79.21532,-9.7425 21.35422,-8.6139 42.83424,-15.49629 47.73349,-15.29428 4.89898,0.20304 -12.5725,8.99922 -38.82569,19.5493 -42.77647,17.18985 -52.30918,18.43895 -91.79508,12.02764 -24.63383,-3.99971 -53.56082,-4.39201 -65.60582,-0.88948 -11.84939,3.44547 -22.63278,5.15072 -23.96307,3.78929 -1.33031,-1.36125 2.58156,-14.72235 8.69311,-29.69113 6.1115,-14.96871 11.11176,-33.85216 11.11176,-41.96318 0,-12.97865 -2.78317,-13.93041 -23.20667,-7.93609 -12.76365,3.74615 -30.93905,14.24515 -40.38976,23.33117 l -17.18302,16.51998 -0.55883,-37.00749 C 189.8143,455.59603 179.35679,426.69024 147.0183,382.17315 103.03796,321.6299 88.48473,293.37873 89.242267,270.01652 c 0.486863,-15.0098 1.833615,-17.52175 4.029506,-7.5152 9.679527,44.10802 21.276717,67.74549 50.323887,102.57061 33.15336,39.74809 54.82775,90.58986 54.82775,128.6097 0,12.00828 2.47851,20.59747 5.50769,19.08701 19.63668,-9.79116 44.07885,-20.42526 55.07691,-23.96239 17.17921,-5.52507 16.43866,-31.51884 -2.73872,-96.13212 -14.85124,-50.03725 -15.04814,-54.77375 -4.15541,-99.94588 12.50457,-51.85668 10.26928,-71.90388 -11.59655,-104.00453 l -14.42086,-21.17079 26.55322,5.09782 c 28.61275,5.4933 30.82344,3.08739 18.61463,-20.2584 -4.36622,-8.34901 -6.03341,-17.12974 -3.7049,-19.51274 2.32852,-2.38303 7.87644,6.36138 12.32874,19.43179 4.89317,14.36473 13.13613,23.76451 20.83993,23.76451 20.89343,0 22.46584,-7.70433 7.43134,-36.41122 -7.84815,-14.98523 -14.26935,-38.68145 -14.26935,-52.658359 0,-22.83249 -1.67754,-24.90209 -16.52312,-20.3865 -9.08763,2.76416 -29.74152,6.44745 -45.89742,8.18504 l -29.37434,3.15922 30.7693,-6.83961 c 16.92312,-3.76182 39.22928,-12.51236 49.56923,-19.4457 l 18.79992,-12.60617 v 37.32926 c 0,41.557009 26.25709,91.278559 44.78303,84.802999 5.66164,-1.97886 28.25369,-3.85808 50.20477,-4.17576 36.62102,-0.52994 41.66278,-2.79297 61.16696,-27.45446 12.36396,-15.63307 22.93485,-39.682709 25.26833,-57.487379 l 4.01192,-30.61055 23.75855,18.54503 c 13.0669,10.19976 41.40978,23.90953 62.98393,30.46613 30.66585,9.31968 47.04003,20.652249 75.03654,51.933279 19.99778,22.34392 48.93471,45.38611 65.53159,52.18208 l 29.72045,12.16983 -32.13563,16.59125 c -28.8553,14.89762 -33.822,21.57761 -48.65696,65.44032 -13.41961,39.67872 -24.60316,56.60886 -59.57252,90.18312 -61.78107,59.31651 -81.79329,92.26142 -81.79329,134.65116 0,19.80565 5.0795,42.27703 11.76435,52.04406 6.47037,9.45377 10.10592,18.88588 8.07902,20.96031 -2.02748,2.07431 -6.06548,-0.1694 -8.97419,-4.98576 z m 52.38975,-193.27572 c 28.51812,-28.15515 55.5559,-62.43237 60.76202,-77.03134 21.019,-58.94014 31.06553,-75.91555 53.01298,-89.57451 l 23.00787,-14.31912 -21.86,-11.56853 c -12.02288,-6.36263 -37.97471,-28.77637 -57.67056,-49.80828 -26.67174,-28.4811 -45.38832,-41.08919 -73.34208,-49.405539 -20.64238,-6.14121 -43.83075,-16.04461 -51.52984,-22.00761 -19.99751,-15.48829 -21.755,-14.5089 -31.07136,17.31243 -4.61042,15.747739 -16.69935,36.628399 -26.86474,46.401539 -10.16541,9.77309 -18.48274,20.56165 -18.48274,23.97449 0,11.62629 37.99307,6.25163 50.22811,-7.10539 6.70593,-7.32093 9.71409,-10.0264 6.68485,-6.01222 -9.99653,13.24697 -5.7633,19.32286 13.46316,19.32286 12.31121,0 17.63482,3.29781 15.16436,9.39413 -19.6431,48.47574 -20.9115,64.47006 -9.26885,116.85579 6.51846,29.32921 12.12007,64.4946 12.44808,78.14556 l 0.59714,24.81981 10.08762,-22.54574 c 13.58734,-30.36739 13.41599,-13.38007 -0.24977,26.30332 -11.50603,33.37402 -12.48449,37.57638 -8.74868,37.57638 1.24706,0 25.38834,-22.82761 53.64844,-50.72803 z m -4.83733,-110.85001 c 7.8277,-16.53352 17.93614,-40.61336 22.46325,-53.51068 4.72509,-13.46138 16.62159,-27.11835 27.92956,-32.06261 l 19.69838,-8.61286 -20.04776,15.67051 c -11.17217,8.7327 -23.40668,28.43551 -27.63436,44.50284 -4.17244,15.85783 -14.12369,36.76165 -22.11384,46.45311 -14.49584,17.58207 -14.49637,17.5549 -0.29442,-12.44031 z m -251.80267,231.7204 c -9.40961,-9.62957 -5.51973,-115.16678 4.28376,-116.22276 20.94736,-2.25649 127.65262,2.05621 139.5283,5.63943 9.03054,2.72485 12.85107,11.60213 12.85107,29.86052 0,32.69207 -17.33013,40.64144 -88.60112,40.64144 h -50.92688 v 22.54574 c 0,21.54736 -6.60759,28.30925 -17.13513,17.53563 z m 123.01635,-59.67356 c 6.38901,-2.50871 11.616,-12.65448 11.616,-22.5458 0,-17.46993 -1.68032,-17.98406 -58.74847,-17.98406 -56.65075,0 -58.74875,0.62634 -58.74875,17.53563 0,9.64452 2.20243,19.79017 4.89563,22.54571 6.121,6.26401 85.28161,6.61557 100.98559,0.44846 z m -240.08841,-1.08844 c -17.18023,-19.42768 -27.47264,-51.79858 -26.43571,-83.14331 0.79903,-24.15462 1.62699,-22.7187 6.47913,11.23845 3.05966,21.4123 12.78628,49.31262 21.61468,62.00084 17.59594,25.2889 16.69676,30.66 -1.6581,9.90402 z m 82.80198,-99.96335 c 0,-13.34394 80.2869,-119.87118 90.01148,-119.43022 9.19416,0.41706 82.66926,94.06192 90.78579,115.70789 7.21695,19.24628 -16.32082,13.5561 -29.57852,-7.15054 -10.9222,-17.05934 -16.72825,-18.78817 -63.09557,-18.78817 -46.3676,0 -52.17364,1.72878 -63.09591,18.78817 -12.38809,19.34851 -25.02727,24.83951 -25.02727,10.87287 z m 110.15396,-67.23734 c -8.62811,-12.40017 -18.38692,-22.54575 -21.68639,-22.54575 -5.83297,0 -29.71877,33.00875 -29.71877,41.0695 0,2.21218 15.09574,4.02205 33.54622,4.02205 h 33.54597 z M 161.964,266.75303 c -4.1811,-7.99506 -7.60199,-26.13923 -7.60199,-40.32045 0,-14.70534 -6.53964,-34.29208 -15.22014,-45.5855 -8.37113,-10.891 -11.7606,-19.80171 -7.5322,-19.80171 10.73406,0 30.09595,40.54147 30.09595,63.01724 0,10.26964 3.22279,27.34696 7.16179,37.94952 8.41195,22.64217 4.03141,25.65049 -6.90341,4.7409 z M 76.93705,219.32177 c -4.181395,-14.5154 -16.575267,-30.49054 -30.610112,-39.45508 -12.97106,-8.285 -23.711071,-17.16781 -23.866681,-19.73967 -0.155401,-2.57169 12.109448,-6.75743 27.255619,-9.30152 26.510109,-4.45287 42.582317,-13.40525 96.552624,-53.780719 13.72399,-10.26699 31.89935,-18.51877 40.38976,-18.33739 10.16312,0.21732 6.09566,3.74243 -11.90555,10.31847 -15.03846,5.4937 -38.71345,20.205669 -52.61117,32.693199 -13.89769,12.4876 -37.209067,26.7375 -51.803088,31.66661 l -26.534551,8.96192 22.232914,25.9138 c 12.228082,14.25255 22.232914,32.55986 22.232914,40.68279 0,21.10896 -3.283015,18.32144 -11.332679,-9.62241 z" />
  <path
     d="m 400.31391,245.54782 a 14.897168,14.897168 0 0 1 1.49791,1.80539 l 70.16891,-1.71685 8.18593,-14.95831 24.18943,9.40347 -11.91813,27.88905 a 11.322482,11.322482 0 0 1 -11.76955,6.79146 l -79.27778,-9.57692 a 14.856662,14.856662 0 1 1 -1.07675,-19.63727 z"
     fill="#ffb7b7"
     id="path958"
     style="stroke-width:1.71778" />
  <polygon
     points="504.932,655.449 524.755,655.45 524.753,707.256 511.322,707.256 "
     fill="#ffb7b7"
     id="polygon960"
     transform="matrix(1.7177815,0,0,1.7177815,-272.35679,-543.22178)" />
  <path
     d="m 634.93769,694.05495 -74.39368,-0.003 v -0.94091 a 28.957638,28.957638 0 0 1 28.9561,-28.95562 h 0.002 l 45.43704,0.002 z"
     fill="#2f2e41"
     id="path962"
     style="stroke-width:1.71778" />
  <polygon
     points="404.916,651.529 423.145,659.317 402.792,706.958 390.441,701.681 "
     fill="#ffb7b7"
     id="polygon964"
     transform="matrix(1.7177815,0,0,1.7177815,-272.35679,-543.22178)" />
  <path
     d="m 416.17771,694.05495 -68.41237,-29.22634 0.36964,-0.86533 a 28.957656,28.957656 0 0 1 38.0029,-15.25326 l 0.002,7.2e-4 41.78383,17.85056 z"
     fill="#2f2e41"
     id="path966"
     style="stroke-width:1.71778" />
  <polygon
     points="486.887,489.179 516.593,492.358 507.849,468.459 459.468,470.402 458.496,486.141 "
     fill="#ffb7b7"
     id="polygon968"
     transform="matrix(1.7177815,0,0,1.7177815,-272.35679,-543.22178)" />
  <path
     d="m 513.70406,292.20962 -18.94561,-132.07589 32.83793,-10.76203 9.64491,-13.22709 46.93476,2.77741 6.89065,15.43505 25.02678,11.82561 -3.84612,71.42834 2.80584,59.75195 z"
     fill="#2f2e41"
     id="path970"
     style="stroke-width:1.71778" />
  <path
     d="m 501.77971,256.81587 -33.40151,-13.36391 0.14237,-0.59435 c 0.1434,-0.59917 14.3594,-60.00635 16.24707,-69.55279 1.96643,-9.94595 9.15045,-12.69566 9.45556,-12.8076 l 0.22287,-0.0823 13.21881,4.02342 5.80532,45.61479 z"
     fill="#2f2e41"
     id="path972"
     style="stroke-width:1.71778" />
  <path
     d="m 436.73612,655.53662 -44.46256,-9.12053 71.06409,-196.09128 24.32141,-66.88385 c 0,0 15.42602,-53.6272 22.39552,-74.38016 l 4.20601,-27.84572 99.56572,11.02063 c 0,0 27.80846,40.83937 19.36045,107.40506 l 3.82089,250.19551 -44.46255,2.28013 -37.24214,-252.3345 -65.36375,138.32796 c 0,0 -20.60195,59.02946 -35.34205,71.82412 z"
     fill="#2f2e41"
     id="path974"
     style="stroke-width:1.71778" />
  <path
     d="m 573.8982,301.52237 a 14.897941,14.897941 0 0 1 2.34232,0.12904 l 46.44946,-52.62204 -5.4032,-16.17291 23.34213,-11.34456 12.34774,27.70153 a 11.322533,11.322533 0 0 1 -3.02208,13.24817 l -60.92435,51.62277 A 14.856662,14.856662 0 1 1 573.8982,301.52242 Z"
     fill="#ffb7b7"
     id="path976"
     style="stroke-width:1.71778" />
  <path
     d="m 618.98215,254.15042 -19.37623,-45.57748 7.55719,-31.74708 8.14254,-10.28728 a 4.6900931,4.6900931 0 0 1 3.76842,0.0352 c 3.00304,1.20868 5.56034,4.91285 7.60108,11.01013 l 18.15891,51.72386 z"
     fill="#2f2e41"
     id="path978"
     style="stroke-width:1.71778" />
  <path
     d="M 518.4539,119.25601 V 84.894867 a 46.04393,46.04393 0 0 1 92.08786,0 v 34.361143 a 6.1919838,6.1919838 0 0 1 -6.18501,6.18501 h -79.71791 a 6.1919666,6.1919666 0 0 1 -6.18494,-6.18501 z"
     fill="#2f2e41"
     id="path980"
     style="stroke-width:1.71778" />
  <circle
     cx="555.03632"
     cy="90.883354"
     r="33.75779"
     fill="#ffb7b7"
     id="circle982"
     style="stroke-width:1.71778" />
  <path
     d="m 507.561,87.643767 a 36.464,36.464 0 0 1 36.42283,-36.42281 h 6.87255 a 36.463708,36.463708 0 0 1 36.42248,36.42281 v 0.68721 h -14.52324 l -4.9535,-13.87062 -0.99058,13.87062 h -7.50581 l -2.49923,-6.99839 -0.49998,6.99839 h -48.74548 z"
     fill="#2f2e41"
     id="path984"
     style="stroke-width:1.71778" />
  <path
     d="m 551.71403,129.30498 a 6.0934518,6.0934518 0 0 1 -0.48421,-6.46956 c 7.28262,-13.85182 17.47922,-39.446853 3.94482,-55.231517 l -0.97278,-1.134183 h 39.29183 v 58.99111 l -35.69364,6.29775 a 6.3172272,6.3172272 0 0 1 -1.09459,0.0966 6.1601533,6.1601533 0 0 1 -4.99143,-2.55024 z"
     fill="#2f2e41"
     id="path986"
     style="stroke-width:1.71778" />
  <polygon
     points="247.551,655.523 229.636,649.121 212.904,695.94 225.042,700.278 "
     fill="#9f616a"
     id="polygon988"
     transform="matrix(1.7177815,0,0,1.7177815,-272.35679,-543.22178)" />
  <path
     d="m 80.823139,670.56288 9.656749,-27.02036 41.063192,14.67559 a 27.822906,27.822906 0 0 1 16.81726,35.52181 l -0.30425,0.85015 z"
     fill="#2f2e41"
     id="path990"
     style="stroke-width:1.71778" />
  <polygon
     points="310.859,658.226 291.834,658.227 291.836,707.946 304.726,707.945 "
     fill="#9f616a"
     id="polygon992"
     transform="matrix(1.7177815,0,0,1.7177815,-272.35679,-543.22178)" />
  <path
     d="m 223.30546,665.64544 43.60657,-0.002 h 0.002 a 27.789753,27.789753 0 0 1 27.79027,27.78936 v 0.90305 l -71.39725,0.003 z"
     fill="#2f2e41"
     id="path994"
     style="stroke-width:1.71778" />
  <path
     d="m 178.4902,127.22879 9.62978,-19.02825 c 0,0 35.87414,8.98794 39.13542,29.77964 z"
     fill="#f1f1f1"
     id="path996"
     style="stroke-width:1.71778" />
  <polygon
     points="214.093,673.622 238.276,683.085 279.282,613.691 284.539,594.765 287.693,693.599 309.503,692.937 319.502,600.65 303.464,514.857 239.328,516.96 254.573,602.034 "
     fill="#2f2e41"
     id="polygon998"
     transform="matrix(1.7177815,0,0,1.7177815,-272.35679,-543.22178)" />
  <path
     d="m 188.46795,379.34945 c -38.47219,0 -62.89889,-7.35853 -63.44611,-7.47495 l -0.88586,-0.18871 20.03884,-92.90754 0.90217,-85.69893 c 0,-36.31639 23.90197,-63.09068 27.21878,-65.56176 a 15.624099,15.624099 0 0 1 8.30965,-10.21234 c 7.97276,-3.61753 17.71548,0.72318 18.12557,0.91011 l 29.24227,10.96371 0.13758,0.40567 c 0.35231,1.03888 38.8686,127.48307 38.8686,127.48307 0,0 -2.33115,110.47912 -3.14382,114.09848 0,-5e-5 -53.99144,8.18319 -75.36767,8.18319 z"
     fill="#3f3d56"
     id="path1000"
     style="stroke-width:1.71778" />
  <circle
     cx="218.02998"
     cy="62.686207"
     r="39.523075"
     fill="#9f616a"
     id="circle1002"
     style="stroke-width:1.71778" />
  <polygon
     points="306.02,462.65 259.823,432.715 300.076,488.877 "
     opacity="0.2"
     id="polygon1004"
     transform="matrix(1.7177815,0,0,1.7177815,-272.35679,-543.22178)" />
  <path
     d="m 390.74726,265.73021 a 16.96079,16.96079 0 0 1 -25.46589,-5.27941 l -59.51542,9.52613 12.89366,-28.54402 54.54013,-4.67006 a 17.052726,17.052726 0 0 1 17.54759,28.96736 z"
     fill="#9f616a"
     id="path1006"
     style="stroke-width:1.71778" />
  <polygon
     points="361.741,471.983 346.076,472.26 345.842,455.838 358.291,454.617 "
     fill="#f1f1f1"
     id="polygon1008"
     transform="matrix(1.7177815,0,0,1.7177815,-272.35679,-543.22178)" />
  <path
     d="m 339.25425,277.93623 -104.73272,-9.32556 -52.88336,-84.10358 -0.1629,-0.74328 a 28.953911,28.953911 0 0 1 54.05274,-19.38709 l 31.04375,60.5536 62.65209,9.47034 z"
     fill="#3f3d56"
     id="path1010"
     style="stroke-width:1.71778" />
  <path
     d="m 184.36504,97.001297 32.80439,1.17748 c 1.9996,0.0718 7.42655,-21.50834 8.13696,-25.985014 a 12.218133,12.218133 0 0 1 12.74544,-9.884114 c 2.45562,0.2319 8.64781,-4.355744 15.03745,-9.788074 12.13098,-10.313353 11.49988,-29.683349 -1.826,-38.398136 q -0.54625,-0.357298 -1.07237,-0.652464 c -8.40667,-4.7052956 -18.24092,-6.2853626 -27.87407,-6.4058996 -8.73269,-0.109216 -17.71296,0.989924 -25.40629,5.1232656 -13.79251,7.410218 -21.13283,23.603623 -21.77762,39.247425 -0.64479,15.643801 4.37038,30.940681 10.06141,45.526771"
     fill="#2f2e41"
     id="path1012"
     style="stroke-width:1.71778" />
  <path
     d="M971.60236,810.67162H228a1,1,0,0,1,0-2H972a1,1,0,0,1,1,1C973,810.22386,972.15461,810.67162,971.60236,810.67162Z"
     transform="translate(-227 -89.32838)"
     fill="#cbcbcb"
     id="path1014" />
</svg>
