<?xml version="1.0" encoding="UTF-8" standalone="no"?>
<svg
   width="25.968664mm"
   height="19.411362mm"
   viewBox="0 0 25.968664 19.411362"
   version="1.1"
   id="svg8"
   sodipodi:docname="aviplastic.svg"
   inkscape:version="1.2.1 (9c6d41e410, 2022-07-14)"
   xmlns:inkscape="http://www.inkscape.org/namespaces/inkscape"
   xmlns:sodipodi="http://sodipodi.sourceforge.net/DTD/sodipodi-0.dtd"
   xmlns="http://www.w3.org/2000/svg"
   xmlns:svg="http://www.w3.org/2000/svg"
   xmlns:rdf="http://www.w3.org/1999/02/22-rdf-syntax-ns#"
   xmlns:cc="http://creativecommons.org/ns#"
   xmlns:dc="http://purl.org/dc/elements/1.1/">
  <sodipodi:namedview
     id="namedview10"
     pagecolor="#ffffff"
     bordercolor="#000000"
     borderopacity="0.25"
     inkscape:showpageshadow="2"
     inkscape:pageopacity="0.0"
     inkscape:pagecheckerboard="0"
     inkscape:deskcolor="#d1d1d1"
     inkscape:document-units="mm"
     showgrid="false"
     inkscape:zoom="5.7042946"
     inkscape:cx="47.683372"
     inkscape:cy="48.910517"
     inkscape:window-width="1920"
     inkscape:window-height="1017"
     inkscape:window-x="1912"
     inkscape:window-y="-8"
     inkscape:window-maximized="1"
     inkscape:current-layer="svg8" />
  <defs
     id="defs2">
    <clipPath
       clipPathUnits="userSpaceOnUse"
       id="clipEmfPath1">
      <path
         d="M 0,0 H 304.8 V 109.6 H 0 Z"
         id="path833" />
    </clipPath>
    <pattern
       id="EMFhbasepattern"
       patternUnits="userSpaceOnUse"
       width="6"
       height="6"
       x="0"
       y="0" />
  </defs>
  <metadata
     id="metadata5">
    <rdf:RDF>
      <cc:Work
         rdf:about="">
        <dc:format>image/svg+xml</dc:format>
        <dc:type
           rdf:resource="http://purl.org/dc/dcmitype/StillImage" />
        <dc:title />
      </cc:Work>
    </rdf:RDF>
  </metadata>
  <g
     id="layer1"
     transform="translate(-88.973696,-68.636572)">
    <path
       id="path1011"
       style="fill:#000000;stroke-width:0.265224"
       d="m 107.33478,87.844055 c -0.10473,-0.170506 -0.55785,-0.494737 -1.01801,-0.695965 -0.48255,-0.21102 -1.06514,-0.47362 -1.34184,-0.534976 -0.0657,-0.01456 0.0405,-0.129195 0.24761,-0.06661 l 1.58869,0.480119 0.0875,-3.601089 c 0.0645,-2.658039 -0.028,-4.12338 -0.35354,-5.595482 -0.39737,-1.797077 -0.39378,-2.430783 0.0218,-3.84548 0.10375,-0.353204 -0.1545,-0.462726 -1.40071,-0.594037 -0.84036,-0.08855 -1.95592,-0.233862 -2.47903,-0.322924 -0.58311,-0.09928 -1.4307,0.0019 -2.19062,0.261488 -0.681733,0.23288 -1.705219,0.423418 -2.274418,0.423418 h -1.034907 l 0.402387,0.968984 c 0.363576,0.875524 0.359838,1.143681 -0.03876,2.780217 -0.42935,1.762801 -0.425644,1.863774 0.138608,3.776179 0.582627,1.974681 0.647652,4.480721 0.145281,5.599036 -0.187869,0.418208 -0.110408,0.476703 0.544782,0.411395 0.420085,-0.04187 1.418205,0.01816 2.218047,0.1334 1.18929,0.171358 1.70895,0.108522 2.85219,-0.344884 0.76887,-0.304931 1.44926,-0.552788 1.62566,-0.545636 0.17639,0.0072 -0.35967,0.322791 -1.30493,0.696263 -1.54019,0.608522 -1.88342,0.652738 -3.30513,0.42578 -0.886955,-0.141591 -1.928486,-0.155477 -2.362173,-0.03149 -0.426645,0.121971 -0.814906,0.182335 -0.862803,0.134143 -0.0479,-0.04819 0.09295,-0.521172 0.313,-1.051065 0.220047,-0.529893 0.400085,-1.198366 0.400085,-1.485495 0,-0.459444 -0.100209,-0.493137 -0.835569,-0.280938 -0.459562,0.132613 -1.113977,0.504278 -1.454254,0.825922 l -0.618685,0.584808 -0.02012,-1.310063 c -0.0255,-1.65759 -0.402028,-2.680853 -1.566393,-4.256756 -1.583536,-2.143227 -2.107532,-3.143317 -2.080257,-3.970338 0.01753,-0.531348 -0.09632,-1.026125 -0.01726,-0.671893 0.348517,1.561424 0.92842,2.804041 1.97428,4.03685 1.193703,1.407081 1.974102,3.206876 1.974102,4.552777 0,0.425094 0.08924,0.72915 0.198307,0.675681 0.707029,-0.346607 1.587082,-0.723054 1.983074,-0.848269 0.618546,-0.195588 0.591882,-1.115766 -0.09861,-3.403072 -0.534726,-1.771318 -0.541816,-1.938989 -0.149618,-3.538081 0.450234,-1.835723 0.369752,-2.545395 -0.41754,-3.681757 l -0.51923,-0.749445 0.956062,0.180463 c 1.030218,0.194462 1.109816,0.109292 0.67023,-0.717146 -0.157208,-0.295556 -0.217237,-0.606393 -0.133397,-0.69075 0.08384,-0.08436 0.283595,0.225192 0.443903,0.687885 0.176182,0.508511 0.472974,0.84126 0.750353,0.84126 0.752279,0 0.808894,-0.272732 0.267569,-1.288953 -0.282577,-0.530478 -0.513776,-1.369324 -0.513776,-1.864103 0,-0.808271 -0.0604,-0.881536 -0.594922,-0.721684 -0.327207,0.09785 -2.604316,0.68112 -3.160015,0.498475 l -0.11838,-0.03891 1.676059,-0.300102 c 0.613944,-0.109928 1.412471,-0.442937 1.784767,-0.688378 L 99.01113,68.63657 v 1.321453 c 0,1.47112 0.9454,3.231259 1.61244,3.002023 0.20385,-0.07005 1.01729,-0.136575 1.80765,-0.147821 1.31856,-0.01876 1.50009,-0.09887 2.20235,-0.971887 0.44517,-0.553409 0.82578,-1.404764 0.9098,-2.035051 l 0.14445,-1.083611 0.85544,0.656493 c 0.47048,0.361072 1.49098,0.846396 2.26777,1.078498 1.10414,0.329918 1.6937,0.73109 2.70173,1.838438 0.72003,0.790975 1.76192,1.606667 2.3595,1.847243 l 1.0701,0.43081 -1.15706,0.58733 c -1.03895,0.527377 -1.21778,0.763848 -1.75192,2.316588 -0.48318,1.404625 -0.88585,2.003949 -2.14494,3.192477 -2.22446,2.099802 -2.94501,3.266052 -2.94501,4.766645 0,0.70112 0.18289,1.496605 0.42358,1.842357 0.23297,0.334664 0.36387,0.668562 0.29089,0.741995 -0.073,0.07343 -0.21839,-0.006 -0.32312,-0.176495 z m 1.88632,-6.841952 c 1.02681,-0.996691 2.00032,-2.210105 2.18777,-2.726908 0.7568,-2.086477 1.11853,-2.687407 1.90876,-3.170934 l 0.82841,-0.506896 -0.78708,-0.409524 c -0.43289,-0.225239 -1.3673,-1.018684 -2.07646,-1.763212 -0.96033,-1.008231 -1.63423,-1.454557 -2.64072,-1.748955 -0.74324,-0.217398 -1.57815,-0.567979 -1.85536,-0.779069 -0.72002,-0.548285 -0.7833,-0.513615 -1.11874,0.61286 -0.166,0.557469 -0.60127,1.296645 -0.96728,1.642613 -0.36601,0.345967 -0.66548,0.727881 -0.66548,0.848697 0,0.411569 1.36796,0.221307 1.80849,-0.251533 0.24145,-0.259158 0.34976,-0.354933 0.24069,-0.212831 -0.35993,0.468943 -0.20751,0.684029 0.48475,0.684029 0.44327,0 0.63495,0.116741 0.546,0.33255 -0.70726,1.71604 -0.75293,2.282238 -0.33373,4.136694 0.2347,1.038249 0.43639,2.283105 0.4482,2.766347 l 0.0215,0.878621 0.36321,-0.798119 c 0.48922,-1.075005 0.48305,-0.473653 -0.009,0.931139 -0.41428,1.181437 -0.44951,1.330199 -0.315,1.330199 0.0449,0 0.91412,-0.808096 1.93164,-1.795768 z m -0.17417,-3.924087 c 0.28184,-0.585287 0.6458,-1.437712 0.8088,-1.894277 0.17013,-0.476533 0.59847,-0.959988 1.00562,-1.135014 l 0.70925,-0.304896 -0.72183,0.554737 c -0.40226,0.309137 -0.84277,1.006615 -0.99499,1.575399 -0.15023,0.561365 -0.50853,1.301361 -0.79622,1.644437 -0.52193,0.622407 -0.52195,0.621443 -0.0106,-0.440386 z m -13.281531,6.051921 c -0.618584,-0.68774 -0.989168,-1.833669 -0.951832,-2.94327 0.02877,-0.855073 0.05858,-0.804241 0.233285,0.39784 0.110164,0.757994 0.460376,1.745666 0.778248,2.194828 0.633551,0.895226 0.601175,1.085363 -0.0597,0.350602 z M 93.996654,76.69645 c -0.150542,-0.283025 -0.273713,-0.925328 -0.273713,-1.427341 0,-0.52057 -0.235463,-1.21394 -0.54801,-1.613728 -0.301406,-0.385538 -0.423446,-0.700978 -0.2712,-0.700978 0.386485,0 1.08362,1.435165 1.08362,2.230807 0,0.363546 0.116039,0.968081 0.257865,1.343411 0.302876,0.801533 0.145153,0.908027 -0.248562,0.167829 z m -3.061439,-1.679063 c -0.150553,-0.513846 -0.596802,-1.079366 -1.102134,-1.396709 -0.46703,-0.29329 -0.85373,-0.607742 -0.859332,-0.698783 -0.0056,-0.09104 0.436007,-0.239214 0.981352,-0.329274 0.954511,-0.157633 1.5332,-0.474546 3.47643,-1.903836 0.494138,-0.363451 1.148552,-0.655564 1.454254,-0.649142 0.365929,0.0077 0.219478,0.13248 -0.428666,0.365271 -0.541467,0.194477 -1.393899,0.71528 -1.894293,1.157339 -0.500393,0.44206 -1.339732,0.946508 -1.865197,1.120996 l -0.955391,0.317252 0.800507,0.917347 c 0.440279,0.504541 0.800508,1.152618 0.800508,1.44017 0,0.491557 0.122787,1.393979 0.0053,1.140736 -0.06113,-0.131734 -0.314143,-1.142873 -0.413319,-1.481367 z"
       sodipodi:nodetypes="ssssccccsssscssssscsccsssssssccsccsscsssscsscsssscscsscscscscccsscscssscscccccsssssssscscsccscscccssccsscsssssssssssssssccccscccssss" />
  </g>
  <g
     aria-label="A
P"
     transform="matrix(1.4711085,0,0,0.6797595,-5.9674376e-7,-0.04638318)"
     id="text555"
     style="font-size:8.23562px;font-family:Anton;-inkscape-font-specification:Anton;stroke:#000000;stroke-width:0">
    <path
       d="M 10.494997,14.824132 10.213506,14.084213 H 7.8168118 L 7.5353209,14.840217 Q 7.3704477,15.28256 7.25383,15.43939 7.1372124,15.5922 6.8718067,15.5922 q -0.2251927,0 -0.3981086,-0.164873 -0.1729158,-0.164874 -0.1729158,-0.373981 0,-0.120639 0.040213,-0.249321 0.040213,-0.128681 0.1327028,-0.357895 l 1.507987,-3.828277 q 0.064341,-0.164873 0.1528093,-0.394087 0.09249,-0.2332352 0.1930224,-0.3860442 0.1045537,-0.15281 0.269427,-0.2453 0.1688945,-0.096511 0.4141937,-0.096511 0.2493205,0 0.4141938,0.096511 0.1688945,0.09249 0.269427,0.241278 0.1045538,0.148788 0.1729158,0.3217042 0.072383,0.168895 0.1809589,0.454407 l 1.540157,3.804148 q 0.180959,0.434301 0.180959,0.631344 0,0.205086 -0.172916,0.378002 -0.168895,0.168895 -0.410173,0.168895 -0.140745,0 -0.241277,-0.05228 -0.100533,-0.04826 -0.168895,-0.132703 -0.06836,-0.08847 -0.148788,-0.265406 -0.0764,-0.180958 -0.132703,-0.317682 z M 8.1304731,13.187463 h 1.7613288 l -0.888707,-2.432885 z"
       style="font-family:'Arial Rounded MT Bold';-inkscape-font-specification:'Arial Rounded MT Bold, '"
       id="path766" />
    <path
       d="M 9.0426669,22.346018 H 7.9488737 v 1.668839 q 0,0.357896 -0.1688945,0.542875 -0.1688946,0.18498 -0.4262577,0.18498 -0.269427,0 -0.4343002,-0.180958 Q 6.754548,24.376774 6.754548,24.0229 v -4.544068 q 0,-0.394087 0.1809585,-0.562981 0.1809584,-0.168895 0.5750457,-0.168895 h 1.5321147 q 0.6795995,0 1.0455381,0.104554 0.361916,0.100532 0.623301,0.333768 0.265406,0.233235 0.40213,0.571024 0.136724,0.337789 0.136724,0.760025 0,0.900771 -0.554939,1.367242 -0.55494,0.462449 -1.6527541,0.462449 z M 8.7531334,19.643706 H 7.9488737 v 1.801541 h 0.8042597 q 0.4222364,0 0.7037273,-0.08847 0.2855122,-0.08847 0.4343002,-0.289534 0.1487881,-0.201065 0.1487881,-0.52679 0,-0.390066 -0.229214,-0.635365 -0.2573631,-0.261382 -1.0576016,-0.261382 z"
       style="font-family:'Arial Rounded MT Bold';-inkscape-font-specification:'Arial Rounded MT Bold, '"
       id="path768" />
  </g>
</svg>
