<?xml version="1.0" encoding="UTF-8" standalone="no"?>
<svg
   width="25.968664mm"
   height="19.411362mm"
   viewBox="0 0 25.968664 19.411362"
   version="1.1"
   id="svg8"
   sodipodi:docname="logo.svg"
   inkscape:version="1.2.1 (9c6d41e410, 2022-07-14)"
   xmlns:inkscape="http://www.inkscape.org/namespaces/inkscape"
   xmlns:sodipodi="http://sodipodi.sourceforge.net/DTD/sodipodi-0.dtd"
   xmlns="http://www.w3.org/2000/svg"
   xmlns:svg="http://www.w3.org/2000/svg"
   xmlns:rdf="http://www.w3.org/1999/02/22-rdf-syntax-ns#"
   xmlns:cc="http://creativecommons.org/ns#"
   xmlns:dc="http://purl.org/dc/elements/1.1/">
  <sodipodi:namedview
     id="namedview10"
     pagecolor="#ffffff"
     bordercolor="#000000"
     borderopacity="0.25"
     inkscape:showpageshadow="2"
     inkscape:pageopacity="0.0"
     inkscape:pagecheckerboard="0"
     inkscape:deskcolor="#d1d1d1"
     inkscape:document-units="mm"
     showgrid="false"
     inkscape:zoom="11.544892"
     inkscape:cx="49.112627"
     inkscape:cy="36.639579"
     inkscape:window-width="1920"
     inkscape:window-height="1027"
     inkscape:window-x="3832"
     inkscape:window-y="-8"
     inkscape:window-maximized="1"
     inkscape:current-layer="svg8" />
  <defs
     id="defs2">
    <clipPath
       clipPathUnits="userSpaceOnUse"
       id="clipEmfPath1">
      <path
         d="M 0,0 H 304.8 V 109.6 H 0 Z"
         id="path833" />
    </clipPath>
    <pattern
       id="EMFhbasepattern"
       patternUnits="userSpaceOnUse"
       width="6"
       height="6"
       x="0"
       y="0" />
  </defs>
  <metadata
     id="metadata5">
    <rdf:RDF>
      <cc:Work
         rdf:about="">
        <dc:format>image/svg+xml</dc:format>
        <dc:type
           rdf:resource="http://purl.org/dc/dcmitype/StillImage" />
        <dc:title />
      </cc:Work>
    </rdf:RDF>
  </metadata>
  <g
     id="layer1"
     transform="translate(-88.973696,-68.636572)">
    <path
       id="path1011"
       style="fill:#000000;stroke-width:0.265224"
       d="m 107.33478,87.844055 c -0.10473,-0.170506 -0.56284,-0.483691 -1.01801,-0.695965 -0.68157,-0.317856 -1.7284,-0.806905 -1.19787,-0.643311 l 1.69233,0.521847 0.0875,-3.601089 c 0.0645,-2.658039 -0.028,-4.12338 -0.35354,-5.595482 -0.39737,-1.797077 -0.39378,-2.430783 0.0218,-3.84548 0.10375,-0.353204 -0.1545,-0.462726 -1.40071,-0.594037 -0.84036,-0.08855 -1.95592,-0.233862 -2.47903,-0.322924 -0.58311,-0.09928 -1.4307,0.0019 -2.19062,0.261488 -0.681733,0.23288 -1.705219,0.423418 -2.274418,0.423418 h -1.034907 l 0.402387,0.968984 c 0.363576,0.875524 0.359838,1.143681 -0.03876,2.780217 -0.42935,1.762801 -0.425644,1.863774 0.138608,3.776179 0.582627,1.974681 0.647652,4.480721 0.145281,5.599036 -0.187869,0.418208 -0.110408,0.476703 0.544782,0.411395 0.420085,-0.04187 1.418205,0.01816 2.218047,0.1334 1.18929,0.171358 1.70895,0.108522 2.85219,-0.344884 0.76887,-0.304931 1.54227,-0.548568 1.71867,-0.541416 0.17639,0.0072 -0.45268,0.318571 -1.39794,0.692043 -1.54019,0.608522 -1.88342,0.652738 -3.30513,0.42578 -0.886955,-0.141591 -1.928486,-0.155477 -2.362173,-0.03149 -0.426645,0.121971 -0.814906,0.182335 -0.862803,0.134143 -0.0479,-0.04819 0.09295,-0.521172 0.313,-1.051065 0.220047,-0.529893 0.400085,-1.198366 0.400085,-1.485495 0,-0.459444 -0.100209,-0.493137 -0.835569,-0.280938 -0.459562,0.132613 -1.113977,0.504278 -1.454254,0.825922 l -0.618685,0.584808 -0.02012,-1.310063 c -0.0255,-1.657593 -0.402028,-2.680856 -1.566393,-4.256759 -1.583536,-2.143227 -2.33671,-4.174617 -2.309435,-5.001638 0.01753,-0.531348 0.06602,-0.322341 0.145085,0.03189 0.348517,1.561424 0.995257,3.131557 2.041117,4.364366 1.193703,1.407081 1.974102,3.206876 1.974102,4.552777 0,0.425094 0.08924,0.72915 0.198307,0.675681 0.707029,-0.346607 1.587082,-0.723054 1.983074,-0.848269 0.618546,-0.195588 0.591882,-1.115766 -0.09861,-3.403072 -0.534726,-1.771318 -0.541816,-1.938989 -0.149618,-3.538081 0.450234,-1.835723 0.369752,-2.545395 -0.41754,-3.681757 l -0.51923,-0.749445 0.956062,0.180463 c 1.030218,0.194462 1.109816,0.109292 0.67023,-0.717146 -0.157208,-0.295556 -0.217237,-0.606393 -0.133397,-0.69075 0.08384,-0.08436 0.283595,0.225192 0.443903,0.687885 0.176182,0.508511 0.472974,0.84126 0.750353,0.84126 0.752279,0 0.808894,-0.272732 0.267569,-1.288953 -0.282577,-0.530478 -0.513776,-1.369324 -0.513776,-1.864103 0,-0.808271 -0.0604,-0.881536 -0.594922,-0.721684 -0.327207,0.09785 -1.07086,0.228241 -1.652562,0.289751 l -1.630584,0.157673 1.68081,-0.287959 c 0.614751,-0.10532 1.412471,-0.442937 1.784767,-0.688378 l 0.676901,-0.446257 v 1.321453 c 0,1.47112 0.9454,3.231259 1.612436,3.002023 0.20385,-0.07005 1.01729,-0.136575 1.80765,-0.147821 1.31856,-0.01876 1.50009,-0.09887 2.20235,-0.971887 0.44517,-0.553409 0.82578,-1.404764 0.9098,-2.035051 l 0.14445,-1.083611 0.85544,0.656493 c 0.47048,0.361072 1.49098,0.846396 2.26777,1.078498 1.10414,0.329918 1.6937,0.73109 2.70173,1.838438 0.72003,0.790975 1.76192,1.606667 2.3595,1.847243 l 1.0701,0.43081 -1.15706,0.58733 c -1.03895,0.527377 -1.21778,0.763848 -1.75192,2.316588 -0.48318,1.404625 -0.88585,2.003949 -2.14494,3.192477 -2.22446,2.099802 -2.94501,3.266052 -2.94501,4.766645 0,0.70112 0.18289,1.496605 0.42358,1.842357 0.23297,0.334664 0.36387,0.668562 0.29089,0.741995 -0.073,0.07343 -0.21839,-0.006 -0.32312,-0.176495 z m 1.88632,-6.841952 c 1.02681,-0.996691 2.00032,-2.210105 2.18777,-2.726908 0.7568,-2.086477 1.11853,-2.687407 1.90876,-3.170934 l 0.82841,-0.506896 -0.78708,-0.409524 c -0.43289,-0.225239 -1.3673,-1.018684 -2.07646,-1.763212 -0.96033,-1.008231 -1.63423,-1.454557 -2.64072,-1.748955 -0.74324,-0.217398 -1.57815,-0.567979 -1.85536,-0.779069 -0.72002,-0.548285 -0.7833,-0.513615 -1.11874,0.61286 -0.166,0.557469 -0.60127,1.296645 -0.96728,1.642613 -0.36601,0.345967 -0.66548,0.727881 -0.66548,0.848697 0,0.411569 1.36796,0.221307 1.80849,-0.251533 0.24145,-0.259158 0.34976,-0.354933 0.24069,-0.212831 -0.35993,0.468943 -0.20751,0.684029 0.48475,0.684029 0.44327,0 0.63495,0.116741 0.546,0.33255 -0.70726,1.71604 -0.75293,2.282238 -0.33373,4.136694 0.2347,1.038249 0.43639,2.283105 0.4482,2.766347 l 0.0215,0.878621 0.36321,-0.798119 c 0.48922,-1.075005 0.48305,-0.473653 -0.009,0.931139 -0.41428,1.181437 -0.44951,1.330199 -0.315,1.330199 0.0449,0 0.91412,-0.808096 1.93164,-1.795768 z m -0.17417,-3.924087 c 0.28184,-0.585287 0.6458,-1.437712 0.8088,-1.894277 0.17013,-0.476533 0.59847,-0.959988 1.00562,-1.135014 l 0.70925,-0.304896 -0.72183,0.554737 c -0.40226,0.309137 -0.84277,1.006615 -0.99499,1.575399 -0.15023,0.561365 -0.50853,1.301361 -0.79622,1.644437 -0.52193,0.622407 -0.52195,0.621443 -0.0106,-0.440386 z m -9.06629,8.202893 c -0.338798,-0.340887 -0.19874,-4.076897 0.15424,-4.114281 0.75422,-0.07988 4.5962,0.07279 5.02379,0.199636 0.32515,0.09646 0.46271,0.410714 0.46271,1.05706 0,1.157298 -0.62398,1.438706 -3.19013,1.438706 h -1.83365 v 0.798119 c 0,0.762775 -0.23791,1.002147 -0.61696,0.62076 z m 4.42927,-2.112442 c 0.23004,-0.08881 0.41824,-0.447969 0.41824,-0.798119 0,-0.618435 -0.0605,-0.636636 -2.11527,-0.636636 -2.03974,0 -2.11528,0.02217 -2.11528,0.620759 0,0.341418 0.0793,0.700572 0.17627,0.79812 0.22039,0.221744 3.07061,0.23419 3.63604,0.01588 z m -8.644511,-0.03853 c -0.618584,-0.68774 -0.989168,-1.833669 -0.951832,-2.94327 0.02877,-0.855073 0.05858,-0.804241 0.233285,0.39784 0.110164,0.757994 0.460376,1.745666 0.778248,2.194828 0.633551,0.895226 0.601175,1.085363 -0.0597,0.350602 z m 2.981329,-3.5387 c 0,-0.472374 2.890772,-4.243435 3.240912,-4.227824 0.33104,0.01476 2.97655,3.329788 3.26879,4.096054 0.25985,0.681319 -0.58764,0.479887 -1.06499,-0.25313 -0.39326,-0.603897 -0.60231,-0.665099 -2.27179,-0.665099 -1.66949,0 -1.87854,0.0612 -2.271802,0.665099 -0.446039,0.684939 -0.90112,0.879319 -0.90112,0.3849 z m 3.966152,-2.380198 c -0.31066,-0.438965 -0.66203,-0.798119 -0.78083,-0.798119 -0.21002,0 -1.07004,1.168508 -1.07004,1.453859 0,0.07831 0.54353,0.14238 1.20785,0.14238 h 1.20784 z M 93.996654,76.69645 c -0.150542,-0.283025 -0.273713,-0.925328 -0.273713,-1.427341 0,-0.52057 -0.235463,-1.21394 -0.54801,-1.613728 -0.301406,-0.385538 -0.423446,-0.700978 -0.2712,-0.700978 0.386485,0 1.08362,1.435165 1.08362,2.230807 0,0.363546 0.116039,0.968081 0.257865,1.343411 0.302876,0.801533 0.145153,0.908027 -0.248562,0.167829 z m -3.061439,-1.679063 c -0.150554,-0.513846 -0.596802,-1.079366 -1.102134,-1.396709 -0.46703,-0.29329 -0.85373,-0.607742 -0.859332,-0.698783 -0.0056,-0.09104 0.436007,-0.239214 0.981352,-0.329274 0.954511,-0.157633 1.5332,-0.474546 3.47643,-1.903836 0.494138,-0.363451 1.148552,-0.655564 1.454254,-0.649142 0.365929,0.0077 0.219478,0.13248 -0.428666,0.365271 -0.541467,0.194477 -1.393899,0.71528 -1.894293,1.157339 -0.500393,0.44206 -1.339732,0.946508 -1.865197,1.120996 l -0.955391,0.317252 0.800507,0.917347 c 0.440279,0.504541 0.800508,1.152618 0.800508,1.44017 0,0.747258 -0.118206,0.64858 -0.408038,-0.340631 z"
       sodipodi:nodetypes="sssccccsssscssssscsccsssssssccsccsscsssscsscsssscscsscscscscccsscscssscssccccsssssssscscsccscscccssccssccssssscsssssscsssssssssccssscsssccsssssssssccccscccsss" />
  </g>
  <path
     style="fill:#ffffff;stroke-width:0.0866184"
     d="m 46.557385,71.227165 c -0.571682,-0.03287 -1.95541,-0.176333 -3.074953,-0.318798 -3.584604,-0.456151 -4.512955,-0.49766 -9.254174,-0.413776 -0.668626,0.01183 -0.734954,-0.0029 -0.893168,-0.19829 -0.203068,-0.25079 -0.184746,-0.358482 0.242702,-1.426559 0.963604,-2.407784 1.382197,-6.016517 1.174036,-10.121481 -0.219348,-4.325564 -0.765556,-7.536902 -2.014582,-11.844403 -1.139901,-3.931161 -1.393923,-5.190715 -1.397512,-6.929471 -0.0028,-1.359459 0.189754,-2.522877 0.934456,-5.645856 1.134634,-4.758195 1.390878,-6.259907 1.310854,-7.682222 -0.07787,-1.383944 -0.286337,-2.024866 -1.994165,-6.130825 l -0.473802,-1.139113 2.869524,-0.04139 c 2.929754,-0.04226 3.208121,-0.06755 5.472062,-0.497181 1.155167,-0.219218 2.937077,-0.678375 4.182054,-1.07762 2.220673,-0.712135 3.730624,-0.989902 5.731765,-1.054403 1.470986,-0.04741 1.596527,-0.03721 4.244302,0.344933 2.559907,0.369463 3.734076,0.518265 8.285063,1.049963 2.78822,0.325752 3.889625,0.600377 4.381812,1.092564 0.309719,0.309719 0.30406,0.476651 -0.06113,1.803238 -0.694997,2.52462 -0.936873,4.096421 -0.934355,6.071771 0.0027,2.096847 0.190076,3.434083 1.096954,7.827456 1.065811,5.163321 1.348404,8.435816 1.351106,15.646128 0.0013,3.409629 -0.312458,18.787141 -0.384828,18.862013 -0.01197,0.01238 -1.460323,-0.419757 -3.218564,-0.96031 -1.758241,-0.540553 -3.303993,-1.009422 -3.435003,-1.04193 -0.258255,-0.06408 -0.326782,0.05925 -0.102621,0.184697 0.09919,0.05551 3.46e-4,0.105621 -0.368128,0.186704 -0.757581,0.16669 -3.59379,1.123103 -5.354338,1.805564 -3.77871,1.464785 -5.517373,1.80949 -8.315365,1.648596 z m -3.21084,-7.896855 c 0.497372,-0.527367 0.653913,-1.506681 0.65494,-4.097248 l 6.93e-4,-1.659667 5.825086,-0.04014 c 5.922259,-0.04081 6.834585,-0.08435 8.558123,-0.408466 1.626248,-0.305819 2.601307,-0.709598 3.306538,-1.369259 0.819492,-0.766539 1.172505,-1.663168 1.251277,-3.178167 0.120771,-2.322756 -0.381142,-3.88584 -1.401821,-4.365615 -0.64426,-0.302839 -3.302044,-0.53839 -9.050601,-0.802126 -3.300755,-0.151435 -10.323203,-0.152207 -10.505625,-0.0012 -0.716897,0.593616 -1.325911,6.855358 -1.109899,11.411719 0.137079,2.891422 0.356386,3.888698 0.960336,4.367035 0.664658,0.52642 1.109711,0.568565 1.510988,0.143087 z M 38.521451,42.086904 c 0.535748,-0.368983 1.205864,-1.124604 1.862146,-2.099748 1.248799,-1.855541 2.074775,-2.262449 4.95217,-2.439626 1.743397,-0.107351 5.481205,-0.105589 7.189557,0.0034 2.884918,0.184032 3.576589,0.508249 4.830226,2.264146 1.25151,1.752914 2.495762,2.671256 3.619263,2.671256 0.360363,0 0.45367,-0.03625 0.613089,-0.238201 0.446361,-0.565436 0.04211,-1.623159 -1.507992,-3.945682 -2.743338,-4.110347 -8.563587,-11.247047 -10.205385,-12.513684 -0.560275,-0.432249 -0.7886,-0.45419 -1.246957,-0.119825 -1.581844,1.153931 -6.995213,7.895988 -9.985329,12.436184 -1.154179,1.752507 -1.742805,2.880205 -1.742805,3.338892 0,1.072734 0.6334,1.323788 1.622017,0.642901 z"
     id="path404"
     transform="scale(0.26458333)" />
  <path
     style="fill:#ffffff;stroke-width:0.0866184"
     d="M 24.429726,63.235449 C 24.195862,62.95366 24.067128,62.215661 23.990854,60.719492 23.841535,57.790521 23.282299,55.442645 22.033941,52.503671 20.69339,49.347647 19.047795,46.675789 16.584463,43.655669 12.96284,39.215446 10.631589,34.410407 9.0586317,28.14386 8.8700631,27.392616 8.8511579,27.198917 8.9233675,26.757966 9.1699234,25.252362 8.8779322,24.180502 7.7068647,22.292353 7.0533445,21.238661 6.4613918,20.482413 4.7993367,18.577843 3.9462058,17.60023 3.1978354,16.736748 3.1362914,16.658995 3.0358763,16.532133 3.2180976,16.453154 4.9119684,15.889369 7.1492959,15.144701 7.8658721,14.848543 9.1382402,14.142661 10.834359,13.201692 12.47257,12.079047 13.729015,10.996664 15.749572,9.2560244 18.558184,7.5836253 21.150243,6.5776659 22.691041,5.9796931 23.159207,5.7189796 23.099842,5.491968 c -0.02957,-0.113092 0.002,-0.1650185 0.100341,-0.1651963 0.418969,-7.535e-4 6.321089,-0.6261263 7.386822,-0.7826834 1.417336,-0.208208 3.38221,-0.6040454 4.276622,-0.8615551 0.654399,-0.1884078 1.260503,-0.2246595 1.511375,-0.090397 0.327607,0.1753297 0.447655,0.7392036 0.525447,2.4680454 0.04081,0.9068703 0.135905,1.9660751 0.211329,2.3537884 0.345103,1.773964 1.080992,3.86972 1.911908,5.444972 1.082233,2.051696 1.394811,3.377418 0.916605,3.887544 -0.288161,0.307396 -0.945023,0.503985 -1.728049,0.517177 -0.798226,0.01345 -1.149507,-0.133357 -1.735178,-0.725159 -0.556234,-0.562057 -0.91998,-1.207802 -1.493333,-2.651054 -0.537068,-1.351916 -0.745266,-1.747089 -1.146535,-2.176201 -0.301951,-0.322902 -0.445572,-0.351484 -0.572687,-0.113968 -0.257579,0.481291 -0.04199,1.312766 0.798026,3.077815 0.449667,0.944844 0.627123,1.41852 0.654327,1.746571 0.0362,0.436528 0.02866,0.454612 -0.249687,0.598548 -0.433392,0.224117 -1.388626,0.134009 -4.214552,-0.397565 -1.3452,-0.253041 -2.469008,-0.436884 -2.497351,-0.408542 -0.02834,0.02834 0.522458,0.887286 1.224,1.908763 1.941252,2.82655 2.500434,3.882679 2.965145,5.60029 0.206213,0.76218 0.224695,0.97291 0.22847,2.604941 0.0025,1.085855 -0.03966,2.028051 -0.108549,2.425315 -0.250482,1.444406 -0.486998,2.570929 -0.97462,4.642107 -0.739891,3.142687 -0.87841,4.004473 -0.882802,5.492245 -0.0055,1.872048 0.174645,2.727069 1.577773,7.48755 0.85016,2.88439 1.443143,5.204577 1.75013,6.847793 0.150879,0.807611 0.195174,1.367818 0.198615,2.511934 0.0049,1.616792 -0.05481,1.941572 -0.472588,2.572308 -0.30003,0.452962 -0.691566,0.676703 -2.034916,1.162841 -1.093544,0.395738 -3.391077,1.375964 -5.229841,2.231273 -0.780247,0.362937 -1.428361,0.659884 -1.440252,0.659884 -0.01189,0 -0.06864,-0.05666 -0.126111,-0.125903 z m 3.20154,-6.904647 c 0,-0.257711 -0.469508,-1.08934 -1.404516,-2.487783 -1.689779,-2.527317 -2.74548,-5.526701 -3.357013,-9.537712 -0.341554,-2.240238 -0.454199,-2.793658 -0.57681,-2.833848 -0.13533,-0.04436 -0.186581,0.32935 -0.252031,1.837736 -0.160106,3.689789 0.800798,7.461397 2.588848,10.161399 0.845971,1.277439 2.518131,3.047906 2.878667,3.047906 0.06827,0 0.122855,-0.0834 0.122855,-0.187698 z M 20.508514,31.810604 c -0.02512,-0.310701 -0.217529,-1.058052 -0.45159,-1.754023 -0.674462,-2.005485 -1.087497,-4.099244 -1.087497,-5.512752 0,-1.077088 -0.520185,-3.011068 -1.258387,-4.678517 -1.046059,-2.362837 -2.42232,-3.948926 -3.036698,-3.499681 -0.30663,0.224213 0.09143,1.154815 1.088974,2.545865 1.400186,1.95252 2.018113,3.82597 2.167324,6.570963 0.151359,2.784469 0.564937,4.37725 1.536323,5.916707 0.395972,0.627539 0.708818,0.952803 0.916423,0.952803 0.154094,0 0.165057,-0.04743 0.125128,-0.541365 z"
     id="path406"
     transform="scale(0.26458333)" />
  <path
     style="fill:#ffffff;stroke-width:0.0866184"
     d="m 69.092603,53.42911 c -0.168392,-0.168391 0.04103,-0.963403 1.030188,-3.910844 1.40207,-4.177808 1.927321,-6.229103 1.689111,-6.596584 -0.208455,-0.32158 -0.855377,0.771455 -2.091729,3.534176 l -0.555388,1.241057 -0.05479,-0.851275 c -0.03014,-0.468201 -0.05937,-1.260786 -0.06496,-1.761299 -0.02455,-2.196352 -0.533536,-5.321606 -2.038336,-12.515826 -0.520854,-2.490127 -0.614001,-3.292679 -0.608223,-5.240413 0.0044,-1.493678 0.03596,-1.920116 0.198516,-2.68517 0.257183,-1.210386 0.673523,-2.563897 1.269688,-4.127723 0.269624,-0.70726 0.573482,-1.506782 0.675243,-1.776715 0.24649,-0.653855 0.162377,-0.909357 -0.389525,-1.183214 -0.339441,-0.168433 -0.616556,-0.213753 -1.689059,-0.276233 -1.415759,-0.08248 -2.004929,-0.232809 -2.279269,-0.581576 -0.309376,-0.393308 -0.18482,-0.89511 0.453456,-1.82685 0.425788,-0.621555 0.189188,-0.523124 -0.520193,0.216414 -0.985579,1.027478 -1.896472,1.541297 -3.441147,1.941091 -0.843433,0.218298 -2.368925,0.31166 -2.868753,0.175571 -0.487448,-0.132719 -0.812528,-0.403696 -0.812528,-0.677302 0,-0.436877 0.768938,-1.46113 2.165107,-2.883999 1.987523,-2.02553 3.156884,-4.0319979 4.168002,-7.1517339 0.946577,-2.9205994 1.300276,-3.3303041 2.380793,-2.7577748 0.233386,0.1236634 0.80091,0.4951524 1.261164,0.8255311 1.440672,1.0341388 3.620702,1.9996459 6.828901,3.0244315 2.022044,0.6458954 2.709841,0.9111127 3.854519,1.4863182 2.064944,1.0376439 3.242888,1.9783969 6.539694,5.2228659 2.739666,2.696174 4.516148,4.294357 6.137558,5.521555 0.99619,0.753987 1.516816,1.067756 3.37335,2.033036 l 1.325476,0.689165 -1.737448,1.06098 c -2.101792,1.283467 -2.559359,1.614522 -3.375277,2.442051 -1.501837,1.523208 -2.755919,3.919397 -4.528081,8.651844 -0.831882,2.221487 -0.984379,2.535613 -1.877719,3.867888 -1.506309,2.246416 -4.074208,5.211921 -7.039607,8.129598 -2.985454,2.937409 -7.113235,6.798705 -7.267914,6.798705 -0.02919,0 -0.07906,-0.02599 -0.110816,-0.05775 z m 6.27461,-19.143649 c 1.02224,-1.190811 1.518158,-1.9535 2.242822,-3.449314 0.600041,-1.238574 1.03664,-2.369048 1.422816,-3.684064 0.454314,-1.547035 1.677528,-3.668313 2.803683,-4.862096 0.319292,-0.338466 1.243236,-1.12372 2.05321,-1.745007 0.809973,-0.621289 1.48892,-1.14225 1.508771,-1.157692 0.371727,-0.289187 -2.479458,0.867717 -3.262257,1.323701 -0.968178,0.563969 -2.109966,1.779079 -2.739406,2.915325 -0.164594,0.297119 -0.59054,1.280804 -0.946546,2.185966 -0.837744,2.130001 -1.608008,3.890393 -2.9105,6.651775 -1.041582,2.208234 -1.249545,2.746321 -1.06142,2.746321 0.05216,0 0.452136,-0.416212 0.888827,-0.924915 z"
     id="path408"
     transform="scale(0.26458333)" />
  <path
     style="fill:#ffffff;stroke-width:0.0866184"
     d="m 46.990477,35.290594 c -1.076951,-0.09513 -1.837178,-0.248749 -1.95931,-0.395909 -0.253712,-0.305704 1.466227,-3.064022 2.798402,-4.487881 0.384415,-0.410872 0.80695,-0.802896 0.938968,-0.871165 0.221864,-0.114731 0.265276,-0.107241 0.573571,0.09896 0.736349,0.4925 1.621982,1.519533 3.069398,3.559458 0.533347,0.751675 1.103997,1.551828 1.268113,1.778119 l 0.298393,0.411437 -3.103985,-0.01208 c -1.707192,-0.0066 -3.454789,-0.04307 -3.88355,-0.08094 z"
     id="path410"
     transform="scale(0.26458333)" />
  <path
     style="fill:#ffffff;stroke-width:0.0866184"
     d="m 47.986588,55.384981 c -2.308111,-0.146449 -3.244029,-0.348411 -3.481982,-0.751375 -0.315621,-0.534491 -0.449893,-1.320916 -0.454598,-2.662572 -0.004,-1.138857 0.01579,-1.329302 0.160257,-1.542466 0.205325,-0.302967 0.654859,-0.537007 1.268738,-0.66054 1.36038,-0.273753 11.549647,-0.274406 12.897445,-8.26e-4 0.614738,0.124782 1.063692,0.358812 1.268737,0.661366 0.140525,0.207351 0.164559,0.402754 0.163084,1.32592 -0.0015,0.925603 -0.03068,1.155034 -0.201183,1.580966 -0.290076,0.724616 -0.775582,1.297885 -1.284661,1.516885 -1.156042,0.497316 -6.528844,0.774195 -10.335837,0.532642 z"
     id="path412"
     transform="scale(0.26458333)" />
</svg>
